<svg xmlns="http://www.w3.org/2000/svg" width="1000" height="560" viewBox="0 0 1000 560">
<rect width="1000" height="560" rx="18" fill="#08111f"/><rect x="20" y="20" width="960" height="520" rx="14" fill="#0d1726" stroke="#243653"/><rect x="20" y="20" width="165" height="520" rx="14" fill="#091321"/>
<text x="45" y="62" fill="white" font-family="Arial" font-size="27" font-weight="700">Nuvio</text><text x="45" y="110" fill="#9fb0c8" font-family="Arial" font-size="16">Search</text><text x="45" y="150" fill="#9fb0c8" font-family="Arial" font-size="16">Home</text><text x="45" y="190" fill="#9fb0c8" font-family="Arial" font-size="16">Movies</text><text x="45" y="230" fill="#9fb0c8" font-family="Arial" font-size="16">TV Shows</text><text x="45" y="270" fill="white" font-family="Arial" font-size="16">Anime</text><text x="45" y="310" fill="#9fb0c8" font-family="Arial" font-size="16">Addons</text>
<text x="220" y="65" fill="#a9b8ca" font-family="Arial" font-size="16">Anime Releases  ›  Summer 2026</text><text x="220" y="105" fill="white" font-family="Arial" font-size="27" font-weight="700">Summer 2026</text>
<image href="https://cms-assets.webediamovies.pro/cdn-cgi/image/dpr%3D1%2Cfit%3Dscale-down%2Cgravity%3Dauto%2Cmetadata%3Dnone%2Cquality%3D85%2Cwidth%3D2500/production/4756/d53fe958e3c641b1082f6e82c04ce267.jpg" x="220" y="130" width="130" height="175" preserveAspectRatio="xMidYMid slice"/>
<image href="https://pbs.twimg.com/media/HAKRIggXAAAFVF-.jpg" x="370" y="130" width="130" height="175" preserveAspectRatio="xMidYMid slice"/>
<image href="https://pbs.twimg.com/media/HEZIwiKaIAAvHzU.jpg" x="520" y="130" width="130" height="175" preserveAspectRatio="xMidYMid slice"/>
<image href="https://ryomin0-anime.com/assets/og/ogp3.jpg" x="670" y="130" width="130" height="175" preserveAspectRatio="xMidYMid slice"/>
<image href="https://times-abema.ismcdn.jp/mwimgs/7/4/1448w/img_74e353953f533490a965afa2ca7585d57906421.jpg" x="820" y="130" width="130" height="175" preserveAspectRatio="xMidYMid slice"/>
<image href="https://cms-assets.webediamovies.pro/cdn-cgi/image/dpr%3D1%2Cfit%3Dscale-down%2Cgravity%3Dauto%2Cmetadata%3Dnone%2Cquality%3D85%2Cwidth%3D2500/production/4756/d53fe958e3c641b1082f6e82c04ce267.jpg" x="220" y="330" width="130" height="175" preserveAspectRatio="xMidYMid slice"/>
<image href="https://pbs.twimg.com/media/HAKRIggXAAAFVF-.jpg" x="370" y="330" width="130" height="175" preserveAspectRatio="xMidYMid slice"/>
<image href="https://pbs.twimg.com/media/HEZIwiKaIAAvHzU.jpg" x="520" y="330" width="130" height="175" preserveAspectRatio="xMidYMid slice"/>
<image href="https://ryomin0-anime.com/assets/og/ogp3.jpg" x="670" y="330" width="130" height="175" preserveAspectRatio="xMidYMid slice"/>
<image href="https://times-abema.ismcdn.jp/mwimgs/7/4/1448w/img_74e353953f533490a965afa2ca7585d57906421.jpg" x="820" y="330" width="130" height="175" preserveAspectRatio="xMidYMid slice"/>
<g fill="white" font-family="Arial" font-size="13"><text x="220" y="325">BLEACH: The Calamity</text><text x="370" y="325">Elusive Samurai S2</text><text x="520" y="325">Smoking Behind the Supermarket</text><text x="670" y="325">Frontier Lord</text><text x="820" y="325">Rich Girl Caretaker</text><text x="220" y="525">BLEACH: The Calamity</text><text x="370" y="525">Elusive Samurai S2</text><text x="520" y="525">Smoking Behind the Supermarket</text><text x="670" y="525">Frontier Lord</text><text x="820" y="525">Rich Girl Caretaker</text></g></svg>